<?xml version="1.0" encoding="UTF-8" standalone="no"?>
<!-- Created with Inkscape (http://www.inkscape.org/) -->

<svg
   width="32"
   height="32"
   viewBox="0 0 32 32"
   version="1.1"
   id="svg1"
   inkscape:version="1.3.2 (091e20e, 2023-11-25, custom)"
   sodipodi:docname="cross.svg"
   xmlns:inkscape="http://www.inkscape.org/namespaces/inkscape"
   xmlns:sodipodi="http://sodipodi.sourceforge.net/DTD/sodipodi-0.dtd"
   xmlns="http://www.w3.org/2000/svg"
   xmlns:svg="http://www.w3.org/2000/svg">
  <sodipodi:namedview
     id="namedview1"
     pagecolor="#ffffff"
     bordercolor="#000000"
     borderopacity="0.25"
     inkscape:showpageshadow="2"
     inkscape:pageopacity="0.0"
     inkscape:pagecheckerboard="0"
     inkscape:deskcolor="#d1d1d1"
     inkscape:document-units="px"
     inkscape:zoom="26.494407"
     inkscape:cx="17.248923"
     inkscape:cy="17.682977"
     inkscape:window-width="2560"
     inkscape:window-height="1377"
     inkscape:window-x="-8"
     inkscape:window-y="-8"
     inkscape:window-maximized="1"
     inkscape:current-layer="layer1" />
  <defs
     id="defs1" />
  <g
     inkscape:label="Слой 1"
     inkscape:groupmode="layer"
     id="layer1">
    <g
       id="Close"
       transform="matrix(0.14900972,0,0,0.14900972,0.16980002,0.12035469)">
	<path
   style="clip-rule:evenodd;fill-rule:evenodd"
   d="M 131.804,106.491 207.74,30.555 c 6.99,-6.99 6.99,-18.323 0,-25.312 -6.99,-6.99 -18.322,-6.99 -25.312,0 L 106.491,81.18 30.554,5.242 c -6.99,-6.99 -18.322,-6.99 -25.312,0 -6.989,6.99 -6.989,18.323 0,25.312 L 81.179,106.49 5.242,182.427 c -6.989,6.99 -6.989,18.323 0,25.312 6.99,6.99 18.322,6.99 25.312,0 l 75.937,-75.937 75.937,75.937 c 6.989,6.99 18.322,6.99 25.312,0 6.99,-6.99 6.99,-18.322 0,-25.312 z"
   id="path1" />

</g>
    <path
       style="fill:#ffffff;fill-rule:evenodd;stroke:#ffffff;stroke-width:0.142654"
       d="M 2.5477075,31.819296 C 1.5068737,31.695519 0.66834887,31.007069 0.31655325,29.987461 0.22369946,29.718343 0.21234899,29.632157 0.21216751,29.194841 0.21198855,28.763617 0.22415711,28.667589 0.31260713,28.402221 0.52826779,27.755194 0.20703998,28.098214 6.4808512,21.81552 9.6630899,18.628775 12.26674,16.004818 12.26674,15.984504 c 0,-0.02031 -2.6128652,-2.652762 -5.8063667,-5.849885 C 1.0538388,4.7219524 0.6447406,4.3034731 0.51944635,4.0574601 0.10266111,3.239109 0.08606561,2.425231 0.47019061,1.6418559 0.92789508,0.70842476 1.8184297,0.14986182 2.8462597,0.15153315 3.3856416,0.15241023 3.8764868,0.30267389 4.3287419,0.60536912 4.428646,0.67223523 7.1047213,3.318996 10.275576,6.4870597 l 5.76519,5.7601163 5.822161,-5.8170359 5.822161,-5.81703535 0.346779,-0.17135144 c 0.468555,-0.23152345 0.814617,-0.3050992 1.327403,-0.28221691 0.716513,0.0319733 1.313029,0.30871408 1.808095,0.838826 0.854645,0.9151454 0.953566,2.2844235 0.237718,3.2905322 -0.117221,0.1647525 -2.269653,2.3432406 -5.905706,5.9771974 l -5.721259,5.717961 5.788835,5.793902 c 4.997901,5.002275 5.809752,5.830001 5.941919,6.058108 0.476748,0.822818 0.49832,1.746836 0.06036,2.585452 -0.691119,1.323373 -2.373532,1.805154 -3.670323,1.051045 -0.160987,-0.09362 -1.65243,-1.560762 -6.035864,-5.937532 l -5.822043,-5.813191 -5.803052,5.797524 c -4.5043779,4.500086 -5.8537333,5.827324 -6.0295156,5.930685 -0.5042738,0.296515 -1.1204012,0.433506 -1.6607269,0.36925 z"
       id="path2" />
  </g>
</svg>
