<?xml version="1.0" encoding="UTF-8" standalone="no"?>
<!-- Created with Inkscape (http://www.inkscape.org/) -->

<svg
   width="32"
   height="32"
   viewBox="0 0 32 32"
   version="1.1"
   id="svg1"
   inkscape:version="1.3.2 (091e20e, 2023-11-25, custom)"
   sodipodi:docname="icon_mail32.svg"
   xmlns:inkscape="http://www.inkscape.org/namespaces/inkscape"
   xmlns:sodipodi="http://sodipodi.sourceforge.net/DTD/sodipodi-0.dtd"
   xmlns="http://www.w3.org/2000/svg"
   xmlns:svg="http://www.w3.org/2000/svg">
  <sodipodi:namedview
     id="namedview1"
     pagecolor="#ffffff"
     bordercolor="#000000"
     borderopacity="0.25"
     inkscape:showpageshadow="2"
     inkscape:pageopacity="0.0"
     inkscape:pagecheckerboard="0"
     inkscape:deskcolor="#d1d1d1"
     inkscape:document-units="px"
     inkscape:zoom="26.494407"
     inkscape:cx="16.494047"
     inkscape:cy="16.777126"
     inkscape:window-width="2560"
     inkscape:window-height="1377"
     inkscape:window-x="-8"
     inkscape:window-y="-8"
     inkscape:window-maximized="1"
     inkscape:current-layer="svg1" />
  <defs
     id="defs1" />
  <g
     id="g2"
     transform="matrix(0.05982025,0,0,0.05982025,0.66942405,0.5412334)">
	<path
   d="M 448,64 H 64 C 28.656,64 0,92.656 0,128 v 256 c 0,35.344 28.656,64 64,64 h 384 c 35.344,0 64,-28.656 64,-64 V 128 C 512,92.656 483.344,64 448,64 Z M 342.656,234.781 478.125,118.687 c 0.938,3 1.875,6 1.875,9.313 v 256 c 0,2.219 -0.844,4.188 -1.281,6.281 z M 448,96 c 2.125,0 4,0.813 6,1.219 L 256,266.938 58,97.219 C 60,96.813 61.875,96 64,96 Z M 33.266,390.25 C 32.828,388.156 32,386.219 32,384 V 128 c 0,-3.313 0.953,-6.313 1.891,-9.313 L 169.313,234.75 Z M 64,416 c -3.234,0 -6.172,-0.938 -9.125,-1.844 l 138.75,-158.563 51.969,44.531 c 2.984,2.595 6.703,3.876 10.406,3.876 3.703,0 7.422,-1.281 10.406,-3.875 l 51.969,-44.531 138.75,158.563 C 454.188,415.062 451.25,416 448,416 Z"
   id="path1" />

</g>
  <path
     style="fill:#ffffff;fill-rule:evenodd;stroke:#ffffff;stroke-width:0.142654"
     d="M 3.9851712,27.284987 C 3.3217005,27.187527 2.6247105,26.883571 2.1151882,26.46949 1.4910443,25.962259 1.0209702,25.235441 0.80203217,24.43912 L 0.69826057,24.061682 V 15.852402 7.6431225 L 0.79862665,7.2800691 C 1.0406126,6.404735 1.5079556,5.6986851 2.1841436,5.186865 2.7585388,4.7520939 3.3688959,4.5037553 4.0753418,4.4173852 4.5209413,4.3629062 27.450102,4.3630835 27.893669,4.4175693 c 1.775777,0.2181287 3.138469,1.5808246 3.356657,3.3566664 0.0542,0.4411672 0.05439,15.7130703 1.94e-4,16.1563333 -0.05783,0.473006 -0.167221,0.840334 -0.376916,1.265657 -0.4805,0.974595 -1.384238,1.708756 -2.471383,2.007652 l -0.377438,0.103772 -11.908174,0.0051 C 9.5410729,27.31555 4.1084547,27.30315 3.9851712,27.28502 Z M 27.828873,25.390791 c 0.09984,-0.0259 0.182286,-0.06108 0.183211,-0.0782 0.0018,-0.03285 -8.268551,-9.497938 -8.299035,-9.497938 -0.0098,0 -0.724294,0.605965 -1.587839,1.346589 -0.863545,0.740624 -1.646371,1.389227 -1.739614,1.441342 -0.236749,0.132321 -0.565432,0.132321 -0.802181,0 -0.09324,-0.05211 -0.877406,-0.701865 -1.742585,-1.44389 -0.865179,-0.742026 -1.58768,-1.340097 -1.605557,-1.329048 -0.06665,0.04119 -8.2825457,9.450829 -8.279445,9.482418 0.011423,0.116372 0.3521674,0.119857 12.009806,0.122829 9.218346,0.0023 11.71999,-0.007 11.863239,-0.04411 z M 6.6240395,19.396049 c 2.1589462,-2.469998 3.9886515,-4.5645 4.0660125,-4.654451 L 10.830708,14.578051 6.7662744,11.094623 2.7018406,7.6111946 2.6436459,7.74039 c -0.051727,0.1148369 -0.059292,1.0031753 -0.068069,7.99312 -0.00953,7.589862 -0.00274,8.164882 0.096253,8.155884 0.014769,-0.0013 1.7932636,-2.023348 3.9522096,-4.493345 z m 22.7386635,4.354246 c 0.05449,-0.196215 0.05523,-15.5973249 7.64e-4,-15.850544 -0.02143,-0.099628 -0.0527,-0.2032454 -0.06948,-0.2302621 -0.02179,-0.03508 -1.191877,0.9453625 -4.093285,3.4298581 l -4.062772,3.47898 0.12197,0.145117 c 0.46354,0.551504 8.015865,9.165538 8.036962,9.166802 0.01459,8.74e-4 0.04422,-0.0621 0.06584,-0.139951 z M 21.962561,11.419871 C 27.02074,7.0825369 27.848432,6.3588704 27.790432,6.3244561 27.694844,6.2677385 4.2739154,6.2678916 4.1783028,6.3246105 c -0.058363,0.034622 0.763405,0.7527869 5.8629512,5.1237945 3.889788,3.33408 5.947175,5.073763 5.978331,5.05515 0.02613,-0.01561 2.700466,-2.303267 5.942976,-5.083684 z"
     id="path2" />
</svg>
