<?xml version="1.0" encoding="UTF-8" standalone="no"?>
<!-- Created with Inkscape (http://www.inkscape.org/) -->

<svg
   width="32"
   height="32"
   viewBox="0 0 32 32"
   version="1.1"
   id="svg1"
   inkscape:version="1.3.2 (091e20e, 2023-11-25, custom)"
   sodipodi:docname="icon_phone.svg"
   xmlns:inkscape="http://www.inkscape.org/namespaces/inkscape"
   xmlns:sodipodi="http://sodipodi.sourceforge.net/DTD/sodipodi-0.dtd"
   xmlns="http://www.w3.org/2000/svg"
   xmlns:svg="http://www.w3.org/2000/svg">
  <sodipodi:namedview
     id="namedview1"
     pagecolor="#ffffff"
     bordercolor="#000000"
     borderopacity="0.25"
     inkscape:showpageshadow="2"
     inkscape:pageopacity="0.0"
     inkscape:pagecheckerboard="0"
     inkscape:deskcolor="#d1d1d1"
     inkscape:document-units="px"
     inkscape:zoom="26.494407"
     inkscape:cx="11.625095"
     inkscape:cy="19.19273"
     inkscape:window-width="2560"
     inkscape:window-height="1377"
     inkscape:window-x="-8"
     inkscape:window-y="-8"
     inkscape:window-maximized="1"
     inkscape:current-layer="layer1" />
  <defs
     id="defs1" />
  <g
     inkscape:label="Слой 1"
     inkscape:groupmode="layer"
     id="layer1">
    <path
       style="fill:#ffffff;fill-rule:evenodd;stroke:#ffffff;stroke-width:0.132913"
       d="M 21.895838,28.990122 C 19.761066,28.744611 17.352407,27.818158 14.932856,26.311916 12.118419,24.559846 9.3436196,22.043139 7.2544746,19.347728 5.2405417,16.749353 3.8790777,14.072453 3.3276392,11.626812 3.1185781,10.699627 3.0685175,10.246654 3.0667236,9.2659664 3.0651756,8.4203969 3.0704492,8.3440132 3.1601612,7.9275842 3.4005023,6.8111741 3.9516204,5.7275995 4.6406857,5.0166725 4.9666164,4.6804014 6.3517639,3.4844221 6.5714858,3.3495616 7.3029109,2.900627 8.1873234,2.864757 8.9545439,3.2529013 9.399073,3.4777999 9.4692276,3.5535298 10.615578,5.0459705 c 0.601682,0.7833355 1.154469,1.4910436 1.228414,1.5726841 0.830075,0.9164693 0.85179,2.3124602 0.05065,3.2568268 -0.103795,0.1223477 -0.59416,0.7312986 -1.089703,1.3532166 l -0.90099,1.130765 0.210777,0.492774 c 0.598349,1.398873 1.387366,2.766039 2.253184,3.9042 1.047302,1.376732 2.384392,2.640629 3.795771,3.587989 0.889377,0.596976 2.046192,1.212488 3.068901,1.632882 l 0.484159,0.199017 0.412589,-0.326183 c 0.469473,-0.371152 1.856748,-1.484216 2.129904,-1.708904 0.742079,-0.610405 1.813342,-0.712091 2.691081,-0.255443 0.15055,0.07833 0.359656,0.218269 0.464666,0.310978 0.105004,0.09271 0.831834,0.661761 1.61517,1.264554 0.967236,0.744311 1.465978,1.150882 1.554296,1.267056 0.610378,0.80288 0.677327,1.897334 0.168192,2.749365 -0.169104,0.282986 -1.457549,1.759194 -1.802694,2.065397 -0.845784,0.750349 -1.951282,1.255359 -3.137526,1.43327 -0.385771,0.05786 -1.465503,0.06557 -1.916578,0.01378 z"
       id="path2" />
  </g>
</svg>
