<?xml version="1.0" encoding="UTF-8" standalone="no"?>
<!-- Created with Inkscape (http://www.inkscape.org/) -->

<svg
   width="32"
   height="32"
   viewBox="0 0 32 32"
   version="1.1"
   id="svg1"
   inkscape:version="1.3.2 (091e20e, 2023-11-25, custom)"
   sodipodi:docname="icon_telegram.svg"
   xmlns:inkscape="http://www.inkscape.org/namespaces/inkscape"
   xmlns:sodipodi="http://sodipodi.sourceforge.net/DTD/sodipodi-0.dtd"
   xmlns="http://www.w3.org/2000/svg"
   xmlns:svg="http://www.w3.org/2000/svg">
  <sodipodi:namedview
     id="namedview1"
     pagecolor="#ffffff"
     bordercolor="#000000"
     borderopacity="0.25"
     inkscape:showpageshadow="2"
     inkscape:pageopacity="0.0"
     inkscape:pagecheckerboard="0"
     inkscape:deskcolor="#d1d1d1"
     inkscape:document-units="px"
     inkscape:zoom="26.494407"
     inkscape:cx="12.115765"
     inkscape:cy="17.645234"
     inkscape:window-width="2560"
     inkscape:window-height="1377"
     inkscape:window-x="-8"
     inkscape:window-y="-8"
     inkscape:window-maximized="1"
     inkscape:current-layer="layer1" />
  <defs
     id="defs1" />
  <g
     inkscape:label="Слой 1"
     inkscape:groupmode="layer"
     id="layer1">
    <g
       id="Artboard"
       transform="matrix(2.147419,0,0,2.147419,-7.784279,-11.477902)">
      <path
         style="clip-rule:evenodd;fill-rule:evenodd"
         d="m 17.562,8.161 c -0.18,1.897 -0.962,6.502 -1.359,8.627 -0.168,0.9 -0.5,1.201 -0.82,1.23 -0.697,0.064 -1.226,-0.461 -1.901,-0.903 -1.056,-0.692 -1.653,-1.123 -2.678,-1.799 -1.185,-0.781 -0.417,-1.21 0.258,-1.911 0.177,-0.184 3.247,-2.977 3.307,-3.23 0.007,-0.032 0.015,-0.15 -0.056,-0.212 C 14.242,9.901 14.139,9.922 14.065,9.939 13.959,9.963 12.272,11.078 9.003,13.284 8.524,13.613 8.09,13.773 7.701,13.765 7.273,13.756 6.449,13.523 5.836,13.323 5.085,13.079 4.487,12.949 4.539,12.535 4.566,12.319 4.863,12.098 5.431,11.872 8.929,10.348 11.262,9.343 12.429,8.857 15.762,7.471 16.454,7.23 16.906,7.222 c 0.566,-0.008 0.702,0.459 0.656,0.939 z"
         id="path1"
         sodipodi:nodetypes="cccccccsccccccccc" />
      <path
         style="fill:#ffffff;fill-rule:evenodd;stroke:#ffffff;stroke-width:1.61394;stroke-opacity:1"
         d="m 320.0571,383.63822 c -5.62984,-1.2574 -11.2414,-4.09356 -19.21974,-9.71389 -4.03429,-2.84195 -12.74997,-8.7322 -56.36697,-38.09399 -20.16059,-13.57157 -23.60375,-16.37424 -25.67542,-20.89936 -2.31716,-5.06133 -1.08647,-9.42825 4.41673,-15.67212 3.56126,-4.04057 14.49711,-14.60892 31.93425,-30.86113 29.28924,-27.29889 47.43057,-45.06664 50.42291,-49.38459 1.83846,-2.6529 1.49369,-5.8751 -0.75293,-7.03687 -2.22615,-1.15119 -4.58809,-0.53658 -9.49281,2.47014 -8.15353,4.99832 -34.28156,22.27215 -71.11681,47.01692 -20.30488,13.64018 -38.70368,25.7095 -40.88621,26.82069 -10.80989,5.50366 -18.02555,6.23545 -31.72711,3.21771 -11.2842,-2.48532 -37.43019,-10.39424 -45.21211,-13.67624 -10.781522,-4.54707 -12.38998,-10.99581 -4.26583,-17.10284 3.63198,-2.73021 7.62312,-4.59999 37.09429,-17.37806 96.85463,-41.99409 128.74212,-55.54121 168.24687,-71.47818 33.83181,-13.64839 45.28488,-17.40457 53.16431,-17.4359 3.08815,-0.0123 4.26267,0.17321 5.97831,0.9441 5.91452,2.65759 8.22178,7.86382 7.77316,17.53971 -0.60675,13.08618 -7.67897,61.76 -17.15994,118.10153 -7.94186,47.19522 -12.16155,70.12235 -13.92802,75.6761 -2.64964,8.33043 -6.61744,14.11528 -11.18899,16.31297 -2.6838,1.2902 -7.8742,1.56325 -12.03794,0.6333 z"
         id="path22"
         transform="scale(0.046875)" />
    </g>
  </g>
</svg>
