<?xml version="1.0" encoding="UTF-8" standalone="no"?>
<!-- Created with Inkscape (http://www.inkscape.org/) -->

<svg
   width="32"
   height="32"
   viewBox="0 0 32 32"
   version="1.1"
   id="svg1"
   inkscape:version="1.3.2 (091e20e, 2023-11-25, custom)"
   sodipodi:docname="clock32.svg"
   xmlns:inkscape="http://www.inkscape.org/namespaces/inkscape"
   xmlns:sodipodi="http://sodipodi.sourceforge.net/DTD/sodipodi-0.dtd"
   xmlns="http://www.w3.org/2000/svg"
   xmlns:svg="http://www.w3.org/2000/svg">
  <sodipodi:namedview
     id="namedview1"
     pagecolor="#ffffff"
     bordercolor="#000000"
     borderopacity="0.25"
     inkscape:showpageshadow="2"
     inkscape:pageopacity="0.0"
     inkscape:pagecheckerboard="0"
     inkscape:deskcolor="#d1d1d1"
     inkscape:document-units="px"
     inkscape:zoom="26.494407"
     inkscape:cx="15.512708"
     inkscape:cy="17.569746"
     inkscape:window-width="2560"
     inkscape:window-height="1377"
     inkscape:window-x="-8"
     inkscape:window-y="-8"
     inkscape:window-maximized="1"
     inkscape:current-layer="layer1" />
  <defs
     id="defs1" />
  <g
     inkscape:label="Слой 1"
     inkscape:groupmode="layer"
     id="layer1">
    <g
       id="g2"
       transform="matrix(0.05832498,0,0,0.05832498,1.0915124,1.0527553)">
	<g
   id="access-time">
		<path
   style="fill-opacity:0.9"
   d="M 255,0 C 114.75,0 0,114.75 0,255 0,395.25 114.75,510 255,510 395.25,510 510,395.25 510,255 510,114.75 395.25,0 255,0 Z m 0,459 C 142.8,459 51,367.2 51,255 51,142.8 142.8,51 255,51 c 112.2,0 204,91.8 204,204 0,112.2 -91.8,204 -204,204 z"
   id="path1" />

		<polygon
   style="fill-opacity:0.9"
   points="362.1,362.1 382.5,328.95 267.75,260.1 267.75,127.5 229.5,127.5 229.5,280.5 "
   id="polygon1" />

	</g>

</g>
    <path
       style="fill:#ffffff;fill-rule:evenodd;stroke:#ffffff;stroke-width:0.142654"
       d="M 15.323989,30.756795 C 12.522641,30.652052 9.6825805,29.673255 7.3789158,28.018608 6.6415168,27.488958 6.1725669,27.087445 5.4712909,26.385305 3.8193559,24.731335 2.6436528,22.848322 1.9029386,20.670212 1.3621498,19.079994 1.1257972,17.637707 1.1257972,15.92789 c 0,-1.320272 0.1183634,-2.312582 0.4235277,-3.550682 C 2.5866706,8.1685341 5.468958,4.5857492 9.3937588,2.6262996 12.870195,0.89069546 16.893403,0.59794959 20.570379,1.8130409 c 2.232858,0.7378692 4.173242,1.9403334 5.871506,3.6385972 1.668236,1.6682359 2.842355,3.5461896 3.588343,5.7394029 0.592453,1.741818 0.837393,3.471281 0.763749,5.392651 -0.106117,2.76861 -1.060113,5.558327 -2.68631,7.855428 -2.527553,3.57032 -6.385789,5.829806 -10.694903,6.263222 -0.690396,0.06944 -1.27815,0.08476 -2.088775,0.05445 z m 2.035754,-2.999114 c 3.808971,-0.44359 7.196326,-2.739672 9.071987,-6.149347 0.735082,-1.336271 1.211338,-2.869056 1.389708,-4.472642 0.06819,-0.613088 0.05799,-1.979926 -0.01927,-2.580978 C 27.447723,11.797259 26.295496,9.4238738 24.382573,7.5109508 22.437684,5.5660626 19.960085,4.3803653 17.192308,4.0699272 c -0.534501,-0.05995 -1.918847,-0.05995 -2.453348,0 -1.757914,0.1971703 -3.396423,0.7404378 -4.8312086,1.6018468 -5.2504458,3.1522343 -7.2958263,9.598211 -4.8053417,15.14394 1.4193965,3.160666 4.2553271,5.612184 7.5963853,6.566691 0.828777,0.236773 1.711884,0.383873 2.700681,0.449855 0.363587,0.02426 1.474454,-0.018 1.960267,-0.07458 z"
       id="path2" />
    <path
       style="fill:#ffffff;fill-rule:evenodd;stroke:#ffffff;stroke-width:0.142654"
       d="M 18.331779,19.755971 14.493625,17.394067 V 12.943213 8.4923583 h 1.094393 1.094394 l 0.0096,3.8762687 0.0096,3.876269 3.321456,1.993997 c 1.9177,1.151269 3.316157,2.01347 3.308918,2.040074 -0.02046,0.07518 -1.112074,1.838908 -1.138151,1.838908 -0.01316,0 -1.751097,-1.062856 -3.862082,-2.361904 z"
       id="path3" />
  </g>
</svg>
