<?xml version="1.0" encoding="UTF-8" standalone="no"?>
<!-- Created with Inkscape (http://www.inkscape.org/) -->

<svg
   width="32"
   height="32"
   viewBox="0 0 32 32"
   version="1.1"
   id="svg1"
   inkscape:version="1.3.2 (091e20e, 2023-11-25, custom)"
   sodipodi:docname="icon_gps32.svg"
   xmlns:inkscape="http://www.inkscape.org/namespaces/inkscape"
   xmlns:sodipodi="http://sodipodi.sourceforge.net/DTD/sodipodi-0.dtd"
   xmlns="http://www.w3.org/2000/svg"
   xmlns:svg="http://www.w3.org/2000/svg">
  <sodipodi:namedview
     id="namedview1"
     pagecolor="#ffffff"
     bordercolor="#000000"
     borderopacity="0.25"
     inkscape:showpageshadow="2"
     inkscape:pageopacity="0.0"
     inkscape:pagecheckerboard="0"
     inkscape:deskcolor="#d1d1d1"
     inkscape:document-units="px"
     inkscape:zoom="26.494407"
     inkscape:cx="15.512708"
     inkscape:cy="17.569746"
     inkscape:window-width="2560"
     inkscape:window-height="1377"
     inkscape:window-x="-8"
     inkscape:window-y="-8"
     inkscape:window-maximized="1"
     inkscape:current-layer="layer1" />
  <defs
     id="defs1" />
  <g
     inkscape:label="Слой 1"
     inkscape:groupmode="layer"
     id="layer1">
    <path
       d="m 16.131048,0.99788912 c -5.866517,0 -10.647037,4.78051958 -10.647037,10.64703688 0,1.650291 0.3726463,3.236698 1.1179389,4.737931 0.010647,0.02129 0.021294,0.04259 0.031941,0.06388 0.2555288,0.489764 6.6437511,10.732214 8.5921591,13.862442 0.191646,0.308764 0.532352,0.500411 0.904998,0.500411 0.372646,0 0.713352,-0.191647 0.904998,-0.500411 1.948408,-3.130228 8.33663,-13.362031 8.538924,-13.766619 l 0.04259,-0.07453 c 0.04259,-0.07453 0.08518,-0.149059 0.106471,-0.223588 0.702703,-1.458644 1.054055,-3.002464 1.054055,-4.59952 0,-5.8665164 -4.780519,-10.64703597 -10.647036,-10.64703597 z m 0,14.90585088 c -2.352996,0 -4.258814,-1.905819 -4.258814,-4.258814 0,-2.3529952 1.905818,-4.2588148 4.258814,-4.2588148 2.352995,0 4.258814,1.9058196 4.258814,4.2588148 0,2.352995 -1.905819,4.258814 -4.258814,4.258814 z"
       id="path1-5"
       style="stroke-width:1.0647" />
    <path
       style="fill:#ffffff;fill-rule:evenodd;stroke:#ffffff;stroke-width:0.142654"
       d="M 15.909018,30.765608 C 15.713411,30.7142 15.491034,30.581887 15.37158,30.445835 15.30827,30.37373 14.994002,29.892911 14.673207,29.377349 14.352412,28.861787 13.096421,26.843401 11.882118,24.892046 9.176956,20.544921 7.3077565,17.526876 6.8956363,16.840778 6.2528591,15.770681 5.8071807,14.477955 5.5984665,13.078232 5.4950324,12.384561 5.5042968,10.811144 5.6160234,10.09647 5.8993914,8.2838709 6.6001716,6.6434123 7.7235353,5.1629889 8.1484218,4.6030529 9.1633127,3.6009593 9.7468563,3.1651811 11.198979,2.0807657 12.80698,1.4068722 14.610888,1.1267241 c 0.781175,-0.1213169 2.263463,-0.1222263 3.034345,-0.00186 1.917031,0.299323 3.597182,1.0286682 5.095187,2.2117964 0.484051,0.3823041 1.359136,1.2598183 1.716249,1.7210124 0.944984,1.2203998 1.650672,2.662226 1.997684,4.0815621 0.253038,1.034971 0.359053,2.330351 0.271386,3.316024 -0.151773,1.706431 -0.61252,3.146568 -1.455159,4.548332 -1.085926,1.806478 -8.273799,13.339939 -8.392508,13.466384 -0.212497,0.226342 -0.684642,0.370383 -0.969054,0.295635 z M 16.663894,15.886049 C 18.387447,15.674833 19.825839,14.419205 20.26501,12.742495 20.702131,11.073617 20.096493,9.2924778 18.739332,8.2555831 17.870954,7.5921265 16.762557,7.2776778 15.69895,7.3930358 c -1.901566,0.2062427 -3.378226,1.5579876 -3.777892,3.4583112 -0.0615,0.292425 -0.0615,1.292815 0,1.58524 0.474653,2.256868 2.493425,3.72512 4.742836,3.449462 z"
       id="path4" />
  </g>
</svg>
